<?xml version="1.0" encoding="UTF-8"?>
<!DOCTYPE svg PUBLIC "-//W3C//DTD SVG 1.1//EN" "http://www.w3.org/Graphics/SVG/1.1/DTD/svg11.dtd">
<svg xmlns="http://www.w3.org/2000/svg" version="1.1" width="94px" height="40px" style="shape-rendering:geometricPrecision; text-rendering:geometricPrecision; image-rendering:optimizeQuality; fill-rule:evenodd; clip-rule:evenodd" xmlns:xlink="http://www.w3.org/1999/xlink">
<g><path style="opacity:1" fill="#242424" d="M 8.5,4.5 C 18.1667,4.5 27.8333,4.5 37.5,4.5C 37.5,12.8333 37.5,21.1667 37.5,29.5C 34.5,29.5 31.5,29.5 28.5,29.5C 28.5,23.8333 28.5,18.1667 28.5,12.5C 21.8333,12.5 15.1667,12.5 8.5,12.5C 8.5,9.83333 8.5,7.16667 8.5,4.5 Z"/></g>
<g><path style="opacity:1" fill="#646364" d="M 8.5,4.5 C 8.5,4.16667 8.5,3.83333 8.5,3.5C 18.5,3.5 28.5,3.5 38.5,3.5C 38.5,12.5 38.5,21.5 38.5,30.5C 35.1667,30.5 31.8333,30.5 28.5,30.5C 28.5,30.1667 28.5,29.8333 28.5,29.5C 31.5,29.5 34.5,29.5 37.5,29.5C 37.5,21.1667 37.5,12.8333 37.5,4.5C 27.8333,4.5 18.1667,4.5 8.5,4.5 Z"/></g>
<g><path style="opacity:1" fill="#a3a2a3" d="M 8.5,12.5 C 15.1667,12.5 21.8333,12.5 28.5,12.5C 28.5,18.1667 28.5,23.8333 28.5,29.5C 28.5,29.8333 28.5,30.1667 28.5,30.5C 28.1667,30.5 27.8333,30.5 27.5,30.5C 27.5,24.8333 27.5,19.1667 27.5,13.5C 20.9779,13.8235 14.6446,13.4902 8.5,12.5 Z"/></g>
<g><path style="opacity:1" fill="#e25124" d="M 5.5,14.5 C 12.5,14.5 19.5,14.5 26.5,14.5C 26.5,20.5 26.5,26.5 26.5,32.5C 23.5,32.5 20.5,32.5 17.5,32.5C 17.5,29.1667 17.5,25.8333 17.5,22.5C 13.5,22.5 9.5,22.5 5.5,22.5C 5.5,19.8333 5.5,17.1667 5.5,14.5 Z"/></g>
<g><path style="opacity:1" fill="#f5d5cc" d="M 8.5,3.5 C 8.5,3.83333 8.5,4.16667 8.5,4.5C 8.5,7.16667 8.5,9.83333 8.5,12.5C 14.6446,13.4902 20.9779,13.8235 27.5,13.5C 27.5,19.1667 27.5,24.8333 27.5,30.5C 27.5,31.5 27.5,32.5 27.5,33.5C 23.9581,33.8128 20.6248,33.4794 17.5,32.5C 20.5,32.5 23.5,32.5 26.5,32.5C 26.5,26.5 26.5,20.5 26.5,14.5C 19.5,14.5 12.5,14.5 5.5,14.5C 7.00744,10.9583 8.00744,7.29166 8.5,3.5 Z"/></g>
<g><path style="opacity:1" fill="#4d4d4d" d="M 58.5,27.5 C 58.8041,25.2043 59.8041,24.871 61.5,26.5C 63.9917,28.0923 65.9917,27.5923 67.5,25C 64.6497,23.8289 61.8164,22.6623 59,21.5C 57.0825,18.6691 57.5825,16.1691 60.5,14C 63.1667,13.3333 65.8333,13.3333 68.5,14C 70.0368,15.1096 70.7035,16.6096 70.5,18.5C 58.7481,16.4544 58.5814,17.7878 70,22.5C 70.8671,29.5248 67.7004,32.0248 60.5,30C 59.6195,29.2917 58.9528,28.4584 58.5,27.5 Z"/></g>
<g><path style="opacity:1" fill="#515050" d="M 75.5,13.5 C 78.1873,13.3359 80.854,13.5026 83.5,14C 85.607,15.2635 86.607,17.0968 86.5,19.5C 83.7607,19.2934 81.4274,18.2934 79.5,16.5C 76.6976,16.9709 75.3642,18.6375 75.5,21.5C 75.3402,24.5177 76.6735,26.5177 79.5,27.5C 81.4983,25.6663 83.8316,24.6663 86.5,24.5C 86.5479,27.2919 85.2146,29.1253 82.5,30C 75.7969,31.4834 72.1302,28.8168 71.5,22C 71.7897,18.6101 73.123,15.7768 75.5,13.5 Z"/></g>
<g><path style="opacity:1" fill="#4e4d4e" d="M 46.5,13.5 C 51.1156,12.4427 54.449,13.9427 56.5,18C 55.7069,19.0852 55.0402,20.2519 54.5,21.5C 57.3201,24.716 56.9867,27.5493 53.5,30C 49.7261,31.1825 46.5594,30.3492 44,27.5C 43.5683,26.3999 44.0683,25.7332 45.5,25.5C 47.3228,26.8449 49.3228,27.3449 51.5,27C 52.3366,25.9887 52.67,24.8221 52.5,23.5C 51.1667,23.5 49.8333,23.5 48.5,23.5C 49.4615,21.1977 50.6282,19.1977 52,17.5C 51.4387,16.9781 50.772,16.6448 50,16.5C 48.4329,17.8561 46.5996,18.5228 44.5,18.5C 44.3915,16.4862 45.0582,14.8195 46.5,13.5 Z"/></g>
<g><path style="opacity:0.973" fill="#ccbdb8" d="M 5.5,22.5 C 9.5,22.5 13.5,22.5 17.5,22.5C 17.5,25.8333 17.5,29.1667 17.5,32.5C 16.8333,33.5 16.1667,34.5 15.5,35.5C 15.5,31.8333 15.5,28.1667 15.5,24.5C 11.5,24.5 7.5,24.5 3.5,24.5C 3.5,28.1667 3.5,31.8333 3.5,35.5C 2.51658,31.7016 2.18325,27.7016 2.5,23.5C 3.79105,23.7373 4.79105,23.404 5.5,22.5 Z"/></g>
<g><path style="opacity:1" fill="#242424" d="M 15.5,35.5 C 11.5,35.5 7.5,35.5 3.5,35.5C 3.5,31.8333 3.5,28.1667 3.5,24.5C 7.5,24.5 11.5,24.5 15.5,24.5C 15.5,28.1667 15.5,31.8333 15.5,35.5 Z"/></g>
<g><path style="opacity:1" fill="#c4c4c4" d="M 61.5,26.5 C 59.8041,24.871 58.8041,25.2043 58.5,27.5C 57.596,26.791 57.2627,25.791 57.5,24.5C 59.4832,24.1568 60.8166,24.8235 61.5,26.5 Z"/></g>
</svg>
