<?xml version="1.0" encoding="UTF-8"?>
<!DOCTYPE svg PUBLIC "-//W3C//DTD SVG 1.1//EN" "http://www.w3.org/Graphics/SVG/1.1/DTD/svg11.dtd">
<svg xmlns="http://www.w3.org/2000/svg" version="1.1" width="216px" height="233px" style="shape-rendering:geometricPrecision; text-rendering:geometricPrecision; image-rendering:optimizeQuality; fill-rule:evenodd; clip-rule:evenodd" xmlns:xlink="http://www.w3.org/1999/xlink">
<g><path style="opacity:1" fill="#fefeff" d="M -0.5,-0.5 C 71.5,-0.5 143.5,-0.5 215.5,-0.5C 215.5,77.1667 215.5,154.833 215.5,232.5C 143.5,232.5 71.5,232.5 -0.5,232.5C -0.5,154.833 -0.5,77.1667 -0.5,-0.5 Z"/></g>
<g><path style="opacity:1" fill="#0a99ff" d="M 86.5,61.5 C 91.1785,61.3342 95.8452,61.5008 100.5,62C 101,62.5 101.5,63 102,63.5C 102.667,98.5 102.667,133.5 102,168.5C 101.5,169 101,169.5 100.5,170C 95.5,170.667 90.5,170.667 85.5,170C 84.7734,168.601 84.2734,167.101 84,165.5C 74.6006,171.17 64.434,173.003 53.5,171C 38.3827,166.215 29.216,156.049 26,140.5C 23.8034,119.726 32.3034,105.226 51.5,97C 62.8097,94.275 73.4764,95.775 83.5,101.5C 84.3326,88.8465 84.8326,76.1798 85,63.5C 85.7172,62.9558 86.2172,62.2891 86.5,61.5 Z"/></g>
<g><path style="opacity:1" fill="#0798ff" d="M 113.5,61.5 C 118.179,61.3342 122.845,61.5008 127.5,62C 128,62.5 128.5,63 129,63.5C 129.5,93.1648 129.667,122.831 129.5,152.5C 149.076,152.174 168.576,152.507 188,153.5C 188.667,158.5 188.667,163.5 188,168.5C 187.5,169 187,169.5 186.5,170C 162.167,170.667 137.833,170.667 113.5,170C 113,169.5 112.5,169 112,168.5C 111.333,133.5 111.333,98.5 112,63.5C 112.717,62.9558 113.217,62.2891 113.5,61.5 Z"/></g>
<g><path style="opacity:1" fill="#1299ff" d="M 156.5,64.5 C 156.5,84.8333 156.5,105.167 156.5,125.5C 166.5,125.5 176.5,125.5 186.5,125.5C 187.117,125.611 187.617,125.944 188,126.5C 188.667,131.5 188.667,136.5 188,141.5C 187.5,142 187,142.5 186.5,143C 171.167,143.667 155.833,143.667 140.5,143C 140,142.5 139.5,142 139,141.5C 138.333,115.5 138.333,89.5 139,63.5C 139.5,63 140,62.5 140.5,62C 145.167,61.3333 149.833,61.3333 154.5,62C 155.756,62.4169 156.423,63.2502 156.5,64.5 Z"/></g>
<g><path style="opacity:1" fill="#cce5ff" d="M 156.5,64.5 C 157.497,84.3264 157.83,104.326 157.5,124.5C 167.348,124.173 177.014,124.506 186.5,125.5C 176.5,125.5 166.5,125.5 156.5,125.5C 156.5,105.167 156.5,84.8333 156.5,64.5 Z"/></g>
<g><path style="opacity:1" fill="#fdfdff" d="M 59.5,113.5 C 80.0035,114.494 87.1701,124.827 81,144.5C 74.572,153.438 66.072,155.938 55.5,152C 42.8339,142.679 41.1673,131.679 50.5,119C 53.5964,117.128 56.5964,115.295 59.5,113.5 Z"/></g>
</svg>
