<?xml version="1.0" standalone="no"?>
<!DOCTYPE svg PUBLIC "-//W3C//DTD SVG 20010904//EN"
 "http://www.w3.org/TR/2001/REC-SVG-20010904/DTD/svg10.dtd">
<svg version="1.0" xmlns="http://www.w3.org/2000/svg"
 width="212.000000pt" height="256.000000pt" viewBox="0 0 212.000000 256.000000"
 preserveAspectRatio="xMidYMid meet">

<g transform="translate(0.000000,256.000000) scale(0.100000,-0.100000)"
fill="#000000" stroke="none">
<path d="M1573 2396 c7 -20 32 -50 62 -73 69 -55 172 -166 218 -236 54 -81
104 -194 128 -284 32 -126 34 -123 -66 -123 -92 0 -128 -11 -143 -44 -12 -27
7 -79 34 -92 11 -4 59 -10 108 -14 93 -5 117 -18 103 -54 -5 -13 -24 -16 -120
-16 -89 0 -117 -3 -127 -15 -19 -23 5 -27 135 -23 109 3 118 5 136 27 25 31
24 54 -5 88 -22 25 -30 28 -120 33 -71 4 -99 9 -106 20 -27 42 22 63 135 56
50 -3 96 -2 103 2 30 20 -30 259 -99 392 -76 147 -229 309 -351 371 l-37 19
12 -34z"/>
<path d="M283 2200 c-259 -312 -305 -740 -120 -1105 85 -169 240 -327 408
-418 70 -39 216 -93 225 -84 9 8 -15 47 -29 47 -30 0 -238 113 -302 164 -188
150 -318 376 -356 618 -15 96 -6 272 20 373 27 103 116 283 180 363 49 59 62
94 42 107 -5 3 -36 -26 -68 -65z"/>
<path d="M250 1673 c-30 -11 -61 -48 -71 -86 -9 -32 -7 -49 6 -84 26 -67 59
-83 173 -83 84 0 93 2 90 18 -3 14 -18 18 -102 22 -88 4 -100 7 -117 29 -10
13 -19 27 -19 31 0 5 45 10 100 12 83 2 103 6 119 23 34 34 37 70 7 99 -22 23
-33 26 -98 25 -40 0 -80 -3 -88 -6z m144 -33 c28 -10 34 -38 14 -58 -12 -12
-198 -18 -198 -6 0 3 5 14 11 25 21 41 114 62 173 39z"/>
<path d="M477 1673 c-17 -16 -3 -22 56 -25 l62 -3 3 -112 c2 -90 6 -113 17
-113 11 0 15 23 17 113 l3 112 58 3 c42 2 57 7 57 17 0 12 -24 15 -133 15 -74
0 -137 -3 -140 -7z"/>
<path d="M790 1550 c0 -109 2 -130 15 -130 12 0 15 13 15 55 l0 56 108 -3 107
-3 3 -52 c2 -38 7 -53 18 -53 11 0 14 23 14 130 0 109 -2 130 -15 130 -12 0
-15 -13 -15 -55 l0 -55 -110 0 -110 0 0 55 c0 42 -3 55 -15 55 -13 0 -15 -21
-15 -130z"/>
<path d="M1110 1549 c0 -119 2 -130 18 -127 15 3 17 17 20 103 l3 99 103 -103
c137 -137 140 -136 144 32 2 109 0 127 -13 127 -13 0 -15 -18 -15 -112 l0
-113 -113 113 c-62 61 -120 112 -130 112 -15 0 -17 -13 -17 -131z"/>
<path d="M1440 1595 c0 -101 14 -135 64 -159 47 -22 123 -21 163 4 48 29 63
67 63 160 0 72 -2 81 -17 78 -15 -3 -19 -18 -23 -89 -6 -97 -15 -114 -70 -129
-49 -13 -93 -4 -122 27 -19 21 -24 37 -27 109 -2 64 -6 84 -17 84 -11 0 -14
-19 -14 -85z"/>
<path d="M700 110 c0 -67 4 -110 10 -110 6 0 10 43 10 110 0 67 -4 110 -10
110 -6 0 -10 -43 -10 -110z"/>
</g>
</svg>
